<svg xmlns="http://www.w3.org/2000/svg" viewBox="0 0 960 640" role="img" aria-labelledby="title desc">
  <title id="title">What we do illustration</title>
  <desc id="desc">Illustration of gears, cargo boxes and logistics paths to represent sourcing and supply chain services.</desc>
  <defs>
    <linearGradient id="bg2" x1="0" y1="0" x2="1" y2="1">
      <stop offset="0%" stop-color="#0b172a" />
      <stop offset="100%" stop-color="#132740" />
    </linearGradient>
    <linearGradient id="accent2" x1="0" y1="0" x2="1" y2="1">
      <stop offset="0%" stop-color="#2f6ef0" />
      <stop offset="100%" stop-color="#f7b731" />
    </linearGradient>
  </defs>
  <rect width="960" height="640" rx="48" fill="url(#bg2)" />
  <circle cx="230" cy="250" r="110" fill="rgba(47,110,240,0.16)" />
  <circle cx="500" cy="170" r="90" fill="rgba(247,183,49,0.18)" />
  <path d="M200 260h160v120H200z" fill="rgba(255,255,255,0.08)" stroke="#fff" stroke-opacity="0.2" stroke-width="8" rx="24" />
  <path d="M242 310h80v48h-80z" fill="#fff" opacity="0.9" />
  <path d="M388 256h132v132H388z" fill="rgba(255,255,255,0.06)" stroke="#fff" stroke-opacity="0.18" stroke-width="8" rx="24" />
  <path d="M434 312a14 14 0 1 1-28 0 14 14 0 0 1 28 0z" fill="#fff" />
  <path d="M713 175l-24 48-54 6 36 36-10 54 48-24 48 24-10-54 36-36-54-6z" fill="url(#accent2)" opacity="0.95" />
  <path d="M580 410c22-36 66-54 106-42 40 12 68 48 68 90h-160c0-22 6-42 14-48z" fill="rgba(255,255,255,0.1)" />
  <path d="M216 420h264v140H216z" fill="rgba(255,255,255,0.08)" stroke="#fff" stroke-opacity="0.18" stroke-width="8" rx="24" />
  <path d="M286 470h120v72H286z" fill="#fff" opacity="0.85" />
  <path d="M490 528h212v40H490z" fill="rgba(247,183,49,0.22)" />
  <path d="M260 504h16v72h-16zM314 504h16v72h-16zM420 504h16v72h-16z" fill="#fff" opacity="0.7" />
</svg>
