<svg width="800" height="480" viewBox="0 0 800 480" fill="none" xmlns="http://www.w3.org/2000/svg">
  <defs>
    <linearGradient id="bg2" x1="0" y1="0" x2="800" y2="480" gradientUnits="userSpaceOnUse">
      <stop offset="0" stop-color="#091f34"/>
      <stop offset="1" stop-color="#1f4876"/>
    </linearGradient>
    <linearGradient id="blue" x1="0" y1="0" x2="1" y2="1">
      <stop offset="0" stop-color="#4ae5ff"/>
      <stop offset="1" stop-color="#0fd9ff"/>
    </linearGradient>
  </defs>
  <rect width="800" height="480" rx="32" fill="url(#bg2)"/>
  <path d="M160 130H540V320H160V130Z" fill="rgba(255,255,255,0.08)" rx="28"/>
  <rect x="190" y="170" width="300" height="180" rx="30" fill="rgba(255,255,255,0.14)"/>
  <rect x="210" y="190" width="260" height="140" rx="22" fill="rgba(74,229,255,0.24)"/>
  <rect x="240" y="220" width="180" height="90" rx="18" fill="#ffffff" opacity="0.12"/>
  <rect x="270" y="242" width="120" height="46" rx="12" fill="#4ae5ff"/>
  <path d="M310 200C310 190 330 170 350 170H420C440 170 460 190 460 200" stroke="#ffffff" stroke-width="12" stroke-linecap="round"/>
  <circle cx="480" cy="230" r="70" fill="rgba(255,255,255,0.12)"/>
  <circle cx="480" cy="230" r="40" fill="url(#blue)"/>
  <circle cx="480" cy="230" r="14" fill="#091f34"/>
  <path d="M480 190V270" stroke="#ffffff" stroke-width="12" stroke-linecap="round"/>
  <path d="M440 230H520" stroke="#ffffff" stroke-width="12" stroke-linecap="round"/>
  <path d="M462 202L498 258" stroke="#ffffff" stroke-width="12" stroke-linecap="round"/>
  <path d="M498 202L462 258" stroke="#ffffff" stroke-width="12" stroke-linecap="round"/>
  <path d="M545 190L605 250" stroke="url(#blue)" stroke-width="16" stroke-linecap="round"/>
  <path d="M605 190L545 250" stroke="url(#blue)" stroke-width="16" stroke-linecap="round" opacity="0.9"/>
  <text x="400" y="430" text-anchor="middle" fill="#f5f7fb" font-family="Inter, system-ui, sans-serif" font-size="32" font-weight="700">Motors &amp; Drives</text>
</svg>
