<svg width="800" height="480" viewBox="0 0 800 480" fill="none" xmlns="http://www.w3.org/2000/svg">
  <defs>
    <linearGradient id="bg" x1="0" y1="0" x2="800" y2="480" gradientUnits="userSpaceOnUse">
      <stop offset="0" stop-color="#0d1f37"/>
      <stop offset="1" stop-color="#1d456f"/>
    </linearGradient>
    <linearGradient id="accent" x1="0" y1="0" x2="1" y2="1">
      <stop offset="0" stop-color="#f7b731"/>
      <stop offset="1" stop-color="#ffd177"/>
    </linearGradient>
  </defs>
  <rect width="800" height="480" rx="32" fill="url(#bg)"/>
  <rect x="100" y="120" width="520" height="220" rx="24" fill="rgba(255,255,255,0.08)"/>
  <path d="M160 160H420" stroke="url(#accent)" stroke-width="16" stroke-linecap="round"/>
  <path d="M160 220H420" stroke="#ffffff" stroke-width="12" stroke-linecap="round" opacity="0.7"/>
  <path d="M160 280H420" stroke="#ffffff" stroke-width="12" stroke-linecap="round" opacity="0.7"/>
  <rect x="460" y="150" width="180" height="160" rx="28" fill="rgba(255,255,255,0.12)"/>
  <circle cx="550" cy="230" r="36" fill="url(#accent)"/>
  <circle cx="550" cy="230" r="16" fill="#0d1f37"/>
  <path d="M500 230H600" stroke="#ffffff" stroke-width="12" stroke-linecap="round"/>
  <path d="M550 190V270" stroke="#ffffff" stroke-width="12" stroke-linecap="round"/>
  <path d="M190 320C220 360 280 360 310 320" stroke="url(#accent)" stroke-width="20" stroke-linecap="round"/>
  <path d="M280 260V320" stroke="url(#accent)" stroke-width="18" stroke-linecap="round"/>
  <path d="M240 300H350" stroke="#ffffff" stroke-width="10" stroke-linecap="round" opacity="0.9"/>
  <circle cx="265" cy="245" r="22" fill="#ffffff" opacity="0.25"/>
  <circle cx="315" cy="245" r="22" fill="#ffffff" opacity="0.25"/>
  <text x="400" y="430" text-anchor="middle" fill="#f5f7fb" font-family="Inter, system-ui, sans-serif" font-size="32" font-weight="700">Pumps &amp; Valves</text>
</svg>
