<svg width="800" height="480" viewBox="0 0 800 480" fill="none" xmlns="http://www.w3.org/2000/svg">
  <defs>
    <linearGradient id="bg4" x1="0" y1="0" x2="800" y2="480" gradientUnits="userSpaceOnUse">
      <stop offset="0" stop-color="#0d243f"/>
      <stop offset="1" stop-color="#1e4c7b"/>
    </linearGradient>
    <linearGradient id="orange" x1="0" y1="0" x2="1" y2="1">
      <stop offset="0" stop-color="#ffb65a"/>
      <stop offset="1" stop-color="#ffd58b"/>
    </linearGradient>
  </defs>
  <rect width="800" height="480" rx="32" fill="url(#bg4)"/>
  <rect x="130" y="150" width="200" height="220" rx="32" fill="rgba(255,255,255,0.1)"/>
  <rect x="170" y="190" width="130" height="160" rx="24" fill="rgba(255,255,255,0.14)"/>
  <rect x="340" y="160" width="260" height="240" rx="32" fill="rgba(255,255,255,0.08)"/>
  <rect x="370" y="190" width="200" height="180" rx="28" fill="rgba(255,182,90,0.2)"/>
  <path d="M190 210H280" stroke="#ffffff" stroke-width="14" stroke-linecap="round"/>
  <path d="M190 250H280" stroke="#ffffff" stroke-width="14" stroke-linecap="round"/>
  <path d="M190 290H260" stroke="#ffffff" stroke-width="14" stroke-linecap="round"/>
  <path d="M380 240H520" stroke="#ffffff" stroke-width="14" stroke-linecap="round"/>
  <path d="M380 280H520" stroke="#ffffff" stroke-width="14" stroke-linecap="round"/>
  <circle cx="580" cy="260" r="44" fill="rgba(255,255,255,0.12)"/>
  <circle cx="580" cy="260" r="28" fill="url(#orange)"/>
  <circle cx="580" cy="260" r="12" fill="#0d243f"/>
  <path d="M535 260H625" stroke="#ffffff" stroke-width="12" stroke-linecap="round"/>
  <path d="M580 220V300" stroke="#ffffff" stroke-width="12" stroke-linecap="round"/>
  <path d="M295 315L365 210" stroke="#ffb65a" stroke-width="18" stroke-linecap="round"/>
  <path d="M430 320L505 220" stroke="#ffffff" stroke-width="16" stroke-linecap="round"/>
  <text x="400" y="430" text-anchor="middle" fill="#f5f7fb" font-family="Inter, system-ui, sans-serif" font-size="32" font-weight="700">Specialised Equipment</text>
</svg>
